<?xml version="1.0" encoding="UTF-8"?>
<svg width="30px" height="30px" viewBox="0 0 30 30" version="1.1" xmlns="http://www.w3.org/2000/svg" xmlns:xlink="http://www.w3.org/1999/xlink">
    <!-- Generator: Sketch 52.1 (67048) - http://www.bohemiancoding.com/sketch -->
    <title>Group 13 Copy</title>
    <desc>Created with Sketch.</desc>
    <g id="Page-1" stroke="none" stroke-width="1" fill="none" fill-rule="evenodd">
        <g id="homepage-copy" transform="translate(-835.000000, -2885.000000)">
            <g id="联系我们" transform="translate(0.000000, 2810.000000)">
                <g id="Group-16" transform="translate(609.000000, 75.000000)">
                    <g id="Group-13-Copy" transform="translate(226.000000, 0.000000)">
                        <circle id="椭圆_14" fill="#666666" cx="15" cy="15" r="15"></circle>
                        <path d="M15.492,21.22 C16.3559217,21.3044539 17.2243858,21.33318 18.092,21.306 C18.799,21.274 18.949,21.129 18.949,21.049 C18.949,20.969 19.126,20.701 17.849,20.256 C18.5258903,19.5951259 18.9695284,18.7320673 19.113,17.797 C19.847,19.072 20.184,19.077 20.184,19.077 C20.43,18.472 20.077,15.959 18.898,13.977 C19.086,11.977 18.228,8.684 14.993,8.684 C11.758,8.684 10.896,11.974 11.084,13.974 C9.905,15.956 9.552,18.469 9.798,19.074 C9.798,19.074 10.146,19.074 10.869,17.794 C11.0124716,18.7290673 11.4561097,19.5921259 12.133,20.253 C10.853,20.698 11.033,20.965 11.033,21.046 C11.033,21.127 11.183,21.271 11.89,21.303 C12.7576142,21.3301773 13.6260781,21.3014512 14.49,21.217 L15.492,21.217 L15.492,21.22 Z" id="路径_1" fill-opacity="0.8" fill="#FFFFFF"></path>
                    </g>
                </g>
            </g>
        </g>
    </g>
</svg>