<?xml version="1.0" encoding="UTF-8"?>
<svg width="30px" height="30px" viewBox="0 0 30 30" version="1.1" xmlns="http://www.w3.org/2000/svg" xmlns:xlink="http://www.w3.org/1999/xlink">
    <!-- Generator: Sketch 52.1 (67048) - http://www.bohemiancoding.com/sketch -->
    <title>Group 14 Copy</title>
    <desc>Created with Sketch.</desc>
    <g id="Page-1" stroke="none" stroke-width="1" fill="none" fill-rule="evenodd">
        <g id="homepage-copy" transform="translate(-885.000000, -2885.000000)">
            <g id="联系我们" transform="translate(0.000000, 2810.000000)">
                <g id="Group-16" transform="translate(609.000000, 75.000000)">
                    <g id="Group-14-Copy" transform="translate(276.000000, 0.000000)">
                        <circle id="椭圆_16" fill="#666666" cx="15" cy="15" r="15"></circle>
                        <path d="M12.857,8.036 C9.457,8.036 6.696,10.436 6.696,13.393 C6.74179036,15.2103692 7.73585766,16.8710686 9.316,17.77 C9.23027666,18.2308941 9.02511091,18.661225 8.721,19.018 C9.32485141,18.9832197 9.8906979,18.7119726 10.296,18.263 C11.1110771,18.5862093 11.9801804,18.7514781 12.857,18.75 L13.425,18.75 C13.226174,18.2375825 13.1244422,17.6926391 13.125,17.143 C13.2751391,14.3334385 15.6722095,12.1762094 18.482,12.322 L18.896,12.322 C18.1052602,9.67664372 15.6151033,7.90932921 12.857,8.036 Z M10.864,12.172 C10.5216926,12.1693381 10.2288683,11.9253919 10.1644222,11.5891954 C10.099976,11.2529988 10.2818328,10.9180601 10.5988907,10.7890032 C10.9159487,10.6599464 11.2800228,10.7726666 11.4686894,11.0582999 C11.657356,11.3439331 11.6181401,11.7230346 11.375,11.964 C11.2388563,12.098152 11.0551309,12.1729365 10.864,12.172 Z M14.85,12.172 C14.5566736,12.1740216 14.2911967,11.9986137 14.1780097,11.7279974 C14.0648226,11.4573812 14.126361,11.145197 14.333779,10.937779 C14.541197,10.730361 14.8533812,10.6688226 15.1239974,10.7820097 C15.3946137,10.8951967 15.5700216,11.1606736 15.568,11.454 C15.5652748,11.8494062 15.2454062,12.1692748 14.85,12.172 Z" id="路径_3" fill-opacity="0.8" fill="#FFFFFF" fill-rule="nonzero"></path>
                        <path d="M23.304,17.143 C23.1532391,14.6292289 20.9961027,12.7118737 18.482,12.857 C15.9682771,12.7124469 13.8117679,14.6296422 13.661,17.143 C13.8117679,19.6563578 15.9682771,21.5735531 18.482,21.429 C19.1823981,21.4280627 19.8758149,21.289787 20.523,21.022 C20.928582,21.4629625 21.4890282,21.729927 22.087,21.767 C21.7806283,21.4007043 21.5739654,20.9615457 21.487,20.492 C22.6021867,19.7384271 23.2802182,18.4887146 23.304,17.143 Z M16.993,16.222 C16.6996736,16.2240216 16.4341967,16.0486137 16.3210097,15.7779974 C16.2078226,15.5073812 16.269361,15.195197 16.476779,14.987779 C16.684197,14.780361 16.9963812,14.7188226 17.2669974,14.8320097 C17.5376137,14.9451967 17.7130216,15.2106736 17.711,15.504 C17.7077311,15.8990156 17.3880198,16.2182817 16.993,16.221 L16.993,16.222 Z M20.293,16.222 C19.9996736,16.2240216 19.7341967,16.0486137 19.6210097,15.7779974 C19.5078226,15.5073812 19.569361,15.195197 19.776779,14.987779 C19.984197,14.780361 20.2963812,14.7188226 20.5669974,14.8320097 C20.8376137,14.9451967 21.0130216,15.2106736 21.011,15.504 C21.0077311,15.8990156 20.6880198,16.2182817 20.293,16.221 L20.293,16.222 Z" id="路径_4" fill-opacity="0.8" fill="#FFFFFF" fill-rule="nonzero"></path>
                    </g>
                </g>
            </g>
        </g>
    </g>
</svg>