<?xml version="1.0" encoding="UTF-8"?>
<svg width="30px" height="30px" viewBox="0 0 30 30" version="1.1" xmlns="http://www.w3.org/2000/svg" xmlns:xlink="http://www.w3.org/1999/xlink">
    <!-- Generator: Sketch 52.1 (67048) - http://www.bohemiancoding.com/sketch -->
    <title>Group 5 Copy</title>
    <desc>Created with Sketch.</desc>
    <g id="Page-1" stroke="none" stroke-width="1" fill="none" fill-rule="evenodd">
        <g id="homepage-copy" transform="translate(-785.000000, -2885.000000)">
            <g id="联系我们" transform="translate(0.000000, 2810.000000)">
                <g id="Group-16" transform="translate(609.000000, 75.000000)">
                    <g id="Group-5-Copy" transform="translate(176.000000, 0.000000)">
                        <circle id="椭圆_15" fill="#666666" cx="15" cy="15" r="15"></circle>
                        <path d="M13.016,15.598 C11.8578875,15.5484831 10.8703239,16.428828 10.787,17.585 C10.9224978,18.7143529 11.8805478,19.5643286 13.018,19.5643286 C14.1554522,19.5643286 15.1135022,18.7143529 15.249,17.585 C15.1656542,16.4272079 14.1756342,15.5462541 13.016,15.598 Z M12.137,18.498 C11.7614464,18.498 11.457,18.1935536 11.457,17.818 C11.457,17.4424464 11.7614464,17.138 12.137,17.138 C12.5125536,17.138 12.817,17.4424464 12.817,17.818 C12.8183307,17.9988659 12.7475505,18.1728097 12.6203141,18.3013598 C12.4930776,18.4299098 12.31987,18.5024729 12.139,18.503 L12.137,18.498 Z M13.744,17.582 C13.5627915,17.580623 13.4168139,17.4329719 13.4175024,17.2517595 C13.4181909,17.0705471 13.5652863,16.9240095 13.7465,16.9240095 C13.9277137,16.9240095 14.0748091,17.0705471 14.0754976,17.2517595 C14.0761861,17.4329719 13.9302085,17.580623 13.749,17.582 L13.744,17.582 Z M18.496,14.782 C18.732,13.812 19.567,10.834 15.148,12.371 C15.1,9.271 12.437,9.73 10.428,11.701 C8.419,13.672 7.628,14.996 7.594,16.924 C7.594,19.324 10.117,21.312 13.642,21.312 C17.167,21.312 20.494,18.457 20.494,17.026 C20.4158508,15.9122084 19.5976822,14.9905884 18.501,14.781 L18.496,14.782 Z M13.316,20.357 C10.809,20.357 8.784,18.986 8.784,17.298 C8.784,15.61 10.809,14.239 13.316,14.239 C15.823,14.239 17.843,15.61 17.843,17.298 C17.843,18.986 15.816,20.357 13.316,20.357 Z M19.246,11.25 C19.5463552,11.5935147 19.6968633,12.0428785 19.664,12.498 C19.6548116,12.7011258 19.8091793,12.8745677 20.012,12.889 C20.2057349,12.8861996 20.3644997,12.7344136 20.376,12.541 C20.438035,11.8742673 20.2187075,11.2119345 19.771,10.714 C19.3000971,10.2505643 18.6503826,10.0157322 17.992,10.071 C17.8496794,10.0527654 17.709648,10.118458 17.6326941,10.2395603 C17.5557403,10.3606626 17.5557403,10.5153374 17.6326941,10.6364397 C17.709648,10.757542 17.8496794,10.8232346 17.992,10.805 C18.447938,10.7531804 18.9042807,10.8987442 19.246,11.205 L19.246,11.25 Z M17.735,7.85 C17.4094281,7.85 17.1455,8.11392814 17.1455,8.4395 C17.1455,8.76507186 17.4094281,9.029 17.735,9.029 C20.215,9.029 21.228,10.218 21.228,13.129 C21.228,13.4545719 21.4919281,13.7185 21.8175,13.7185 C22.1430719,13.7185 22.407,13.4545719 22.407,13.129 C22.403,9.573 20.892,7.848 17.732,7.848 L17.735,7.85 Z" id="路径_2" fill-opacity="0.8" fill="#FFFFFF" fill-rule="nonzero"></path>
                    </g>
                </g>
            </g>
        </g>
    </g>
</svg>